<svg xmlns="http://www.w3.org/2000/svg" viewBox="0 0 64 64">

  <defs>

    <!-- Luxury gold -->
    <linearGradient id="gold" x1="0%" y1="0%" x2="100%" y2="100%">
      <stop offset="0%" stop-color="oklch(0.79 0.10 86)"/>
      <stop offset="45%" stop-color="oklch(0.72 0.11 84)"/>
      <stop offset="100%" stop-color="oklch(0.63 0.10 80)"/>
    </linearGradient>

  </defs>


  <!-- Background -->
  <rect width="64" height="64" rx="15" fill="#083b32"/>


  <!-- Bold luxury S -->
  <path
    d="
    M46 14
    C39 8 23 8 18 18
    C13 28 22 34 34 38
    C40 40 40 44 34 45
    C27 47 21 43 17 38

    L10 44

    C17 54 34 56 43 48
    C51 41 47 32 36 28
    C27 25 25 23 27 20
    C30 16 38 18 42 22
    Z"
    fill="url(#gold)"/>


  <!-- Integrated clothing tag (raised) -->
  <path
    d="
    M43 10
    L57 15
    L52 28
    L40 23
    L37 17
    Z"
    fill="url(#gold)"/>


  <!-- Tag hole -->
  <circle
    cx="50.8"
    cy="18"
    r="2"
    fill="#083b32"/>

</svg>